# xmcd CD database file
#
# Track frame offsets:
#	150
#	24055
#	59378
#
# Disc length: 1149 seconds
#
# Revision: 4
# Processed by: cddbd v1.5.2PL0 Copyright (c) Steve Scherf et al.
# Submitted via: CDex 1.70beta2
#
DISCID=18047b03
DTITLE=SOUL'd OUT - イルカ
DYEAR=2005
DGENRE=JPop
TTITLE0=イルカ
TTITLE1=She's A Bad Mama Jama
TTITLE2=Data track
EXTD=YEAR: 2005
EXTT0=
EXTT1=
EXTT2=
PLAYORDER=
